<mxfile host="app.diagrams.net" modified="2023-05-04T02:45:05.136Z" agent="Mozilla/5.0 (Macintosh; Intel Mac OS X 10_15_7) AppleWebKit/537.36 (KHTML, like Gecko) Chrome/112.0.0.0 Safari/537.36" version="21.2.3" etag="1sNkuzRGFRaJ5tgtdRWV" type="github">
  <diagram name="第 1 页" id="r4s_X6cK8T2YboEJEy0d">
    <mxGraphModel>
      <root>
        <mxCell id="0" />
        <mxCell id="1" parent="0" />
      </root>
    </mxGraphModel>
  </diagram>
</mxfile>
